<?xml version="1.0" encoding="utf-8"?>
<!-- Generator: Adobe Illustrator 19.2.1, SVG Export Plug-In . SVG Version: 6.00 Build 0)  -->
<svg version="1.1" id="Layer_1" xmlns="http://www.w3.org/2000/svg" xmlns:xlink="http://www.w3.org/1999/xlink" x="0px" y="0px"
	 viewBox="0 0 300 250" style="enable-background:new 0 0 300 250;" xml:space="preserve">
<style type="text/css">
	.st0{clip-path:url(#SVGID_2_);}
</style>
<g>
	<g>
		<defs>
			<rect id="SVGID_1_" x="-250" y="85" width="799.9" height="81.9"/>
		</defs>
		<clipPath id="SVGID_2_">
			<use xlink:href="#SVGID_1_"  style="overflow:visible;"/>
		</clipPath>
		<path class="st0" d="M-250.1,164.9h10.6v-34.3h16.8c5,0,9.1-0.7,12.3-2c3.2-1.4,5.8-3.1,7.6-5.2c1.9-2.1,3.2-4.4,3.9-7
			c0.7-2.6,1.1-5.1,1.1-7.5c0-2.4-0.4-4.9-1.1-7.5c-0.7-2.6-2-5-3.9-7c-1.9-2.1-4.4-3.8-7.6-5.2c-3.2-1.4-7.3-2-12.3-2h-27.4V164.9
			L-250.1,164.9z M-239.6,96.2h13.9c2.1,0,4.1,0.2,6.1,0.5c2,0.3,3.8,0.9,5.4,1.8c1.6,0.9,2.8,2.1,3.8,3.8c1,1.7,1.4,3.8,1.4,6.4
			c0,2.6-0.5,4.8-1.4,6.4c-1,1.7-2.2,2.9-3.8,3.8c-1.6,0.9-3.4,1.5-5.4,1.8c-2,0.3-4.1,0.5-6.1,0.5h-13.9V96.2L-239.6,96.2z
			 M-112.9,163.7c5-2.1,9.3-5,12.8-8.6c3.6-3.7,6.3-8,8.4-13c2-5,3-10.4,3-16.2c0-5.8-1-11.2-3-16.2c-2-5-4.8-9.3-8.4-13
			c-3.6-3.7-7.8-6.5-12.8-8.6c-5-2.1-10.5-3.1-16.4-3.1c-5.9,0-11.4,1-16.4,3.1c-5,2.1-9.3,5-12.8,8.6c-3.6,3.7-6.3,8-8.4,13
			c-2,5-3,10.4-3,16.2c0,5.8,1,11.2,3,16.2c2,5,4.8,9.3,8.4,13c3.6,3.7,7.8,6.5,12.8,8.6c5,2.1,10.5,3.1,16.4,3.1
			C-123.3,166.9-117.9,165.8-112.9,163.7L-112.9,163.7z M-141.4,154.5c-3.6-1.7-6.7-3.9-9.2-6.7c-2.6-2.8-4.6-6.1-5.9-9.9
			c-1.4-3.8-2.1-7.8-2.1-12.1c0-4.3,0.7-8.3,2.1-12.1c1.4-3.8,3.4-7.1,5.9-9.9c2.6-2.8,5.6-5,9.2-6.7c3.6-1.7,7.6-2.5,12.1-2.5
			c4.5,0,8.5,0.8,12.1,2.5c3.6,1.7,6.7,3.9,9.2,6.7c2.6,2.8,4.5,6.1,5.9,9.9c1.4,3.8,2.1,7.8,2.1,12.1c0,4.3-0.7,8.3-2.1,12.1
			c-1.4,3.8-3.4,7.1-5.9,9.9c-2.6,2.8-5.7,5-9.2,6.7c-3.6,1.7-7.6,2.5-12.1,2.5C-133.8,157-137.8,156.2-141.4,154.5L-141.4,154.5z
			 M-53.7,164.9h10.6v-34.3h11.8l19.8,34.3H1.7l-22.1-35.5c2.9-0.3,5.6-1.1,8-2.4c2.4-1.3,4.4-2.9,6.1-4.7c1.7-1.9,2.9-4,3.8-6.3
			c0.9-2.3,1.3-4.7,1.3-7.2c0-2.4-0.4-4.9-1.1-7.5c-0.7-2.6-2-5-3.9-7c-1.9-2.1-4.4-3.8-7.6-5.2c-3.2-1.4-7.3-2-12.3-2h-27.4V164.9
			L-53.7,164.9z M-43.1,96.2h13.9c2.1,0,4.1,0.2,6.1,0.5c2,0.3,3.8,0.9,5.4,1.8c1.6,0.9,2.8,2.1,3.8,3.8c1,1.7,1.4,3.8,1.4,6.4
			c0,2.6-0.5,4.8-1.4,6.4c-1,1.7-2.2,2.9-3.8,3.8c-1.6,0.9-3.4,1.5-5.4,1.8c-2,0.3-4.1,0.5-6.1,0.5h-13.9V96.2L-43.1,96.2z
			 M56.5,164.9h10.6v-68h25.1V87H31.4v9.9h25.1V164.9L56.5,164.9z M129.8,164.9h10.6v-33.7h35.8v-9.9h-35.8V96.9h38.4V87h-49V164.9
			L129.8,164.9z M271.5,163.7c5-2.1,9.3-5,12.8-8.6c3.6-3.7,6.3-8,8.4-13c2-5,3-10.4,3-16.2c0-5.8-1-11.2-3-16.2
			c-2-5-4.8-9.3-8.4-13c-3.6-3.7-7.8-6.5-12.8-8.6c-5-2.1-10.5-3.1-16.4-3.1s-11.4,1-16.4,3.1c-5,2.1-9.3,5-12.8,8.6
			c-3.6,3.7-6.3,8-8.4,13c-2,5-3,10.4-3,16.2c0,5.8,1,11.2,3,16.2c2,5,4.8,9.3,8.4,13c3.6,3.7,7.8,6.5,12.8,8.6
			c5,2.1,10.5,3.1,16.4,3.1S266.6,165.8,271.5,163.7L271.5,163.7z M243,154.5c-3.6-1.7-6.7-3.9-9.2-6.7c-2.6-2.8-4.5-6.1-5.9-9.9
			c-1.4-3.8-2.1-7.8-2.1-12.1c0-4.3,0.7-8.3,2.1-12.1c1.4-3.8,3.4-7.1,5.9-9.9c2.6-2.8,5.6-5,9.2-6.7c3.6-1.7,7.6-2.5,12.1-2.5
			c4.5,0,8.5,0.8,12.1,2.5c3.6,1.7,6.7,3.9,9.2,6.7c2.6,2.8,4.5,6.1,5.9,9.9c1.4,3.8,2.1,7.8,2.1,12.1c0,4.3-0.7,8.3-2.1,12.1
			c-1.4,3.8-3.4,7.1-5.9,9.9c-2.6,2.8-5.7,5-9.2,6.7c-3.6,1.7-7.6,2.5-12.1,2.5C250.7,157,246.6,156.2,243,154.5L243,154.5z
			 M333,164.9h46.3V155h-35.8V87H333V164.9L333,164.9z M418.7,164.9h10.6V87h-10.6V164.9L418.7,164.9z M525.7,163.7
			c5-2.1,9.3-5,12.8-8.6c3.6-3.7,6.3-8,8.4-13c2-5,3-10.4,3-16.2c0-5.8-1-11.2-3-16.2c-2-5-4.8-9.3-8.4-13
			c-3.6-3.7-7.8-6.5-12.8-8.6c-5-2.1-10.5-3.1-16.4-3.1s-11.4,1-16.4,3.1c-5,2.1-9.3,5-12.8,8.6c-3.6,3.7-6.3,8-8.4,13
			c-2,5-3,10.4-3,16.2c0,5.8,1,11.2,3,16.2c2,5,4.8,9.3,8.4,13c3.6,3.7,7.8,6.5,12.8,8.6c5,2.1,10.5,3.1,16.4,3.1
			S520.7,165.8,525.7,163.7L525.7,163.7z M497.2,154.5c-3.6-1.7-6.7-3.9-9.2-6.7c-2.6-2.8-4.5-6.1-5.9-9.9
			c-1.4-3.8-2.1-7.8-2.1-12.1c0-4.3,0.7-8.3,2.1-12.1c1.4-3.8,3.4-7.1,5.9-9.9c2.6-2.8,5.6-5,9.2-6.7c3.6-1.7,7.6-2.5,12.1-2.5
			c4.5,0,8.5,0.8,12.1,2.5c3.6,1.7,6.7,3.9,9.2,6.7c2.6,2.8,4.5,6.1,5.9,9.9c1.4,3.8,2.1,7.8,2.1,12.1c0,4.3-0.7,8.3-2.1,12.1
			c-1.4,3.8-3.4,7.1-5.9,9.9c-2.6,2.8-5.7,5-9.2,6.7c-3.6,1.7-7.6,2.5-12.1,2.5C504.8,157,500.8,156.2,497.2,154.5L497.2,154.5z"/>
	</g>
</g>
</svg>
